<svg xmlns="http://www.w3.org/2000/svg" xmlns:xlink="http://www.w3.org/1999/xlink" width="100" zoomAndPan="magnify" viewBox="0 0 75 74.999997" height="100" preserveAspectRatio="xMidYMid meet" version="1.0"><path fill="#41b5d4" d="M 44.210938 37.339844 C 44.210938 37.78125 44.167969 38.21875 44.082031 38.648438 C 43.996094 39.082031 43.867188 39.5 43.699219 39.90625 C 43.53125 40.316406 43.324219 40.703125 43.078125 41.066406 C 42.832031 41.433594 42.554688 41.773438 42.246094 42.085938 C 41.933594 42.394531 41.59375 42.675781 41.226562 42.917969 C 40.859375 43.164062 40.472656 43.371094 40.066406 43.539062 C 39.660156 43.707031 39.242188 43.835938 38.808594 43.921875 C 38.375 44.007812 37.941406 44.050781 37.5 44.050781 C 37.058594 44.050781 36.625 44.007812 36.191406 43.921875 C 35.757812 43.835938 35.339844 43.707031 34.933594 43.539062 C 34.527344 43.371094 34.140625 43.164062 33.773438 42.917969 C 33.40625 42.675781 33.066406 42.394531 32.753906 42.085938 C 32.445312 41.773438 32.167969 41.433594 31.921875 41.066406 C 31.675781 40.703125 31.46875 40.316406 31.300781 39.90625 C 31.132812 39.5 31.003906 39.082031 30.917969 38.648438 C 30.832031 38.21875 30.789062 37.78125 30.789062 37.339844 C 30.789062 36.898438 30.832031 36.464844 30.917969 36.03125 C 31.003906 35.597656 31.132812 35.179688 31.300781 34.773438 C 31.46875 34.367188 31.675781 33.980469 31.921875 33.613281 C 32.167969 33.246094 32.445312 32.90625 32.753906 32.597656 C 33.066406 32.285156 33.40625 32.007812 33.773438 31.761719 C 34.140625 31.515625 34.527344 31.3125 34.933594 31.140625 C 35.339844 30.972656 35.757812 30.847656 36.191406 30.761719 C 36.625 30.675781 37.058594 30.632812 37.5 30.632812 C 37.941406 30.632812 38.375 30.675781 38.808594 30.761719 C 39.242188 30.847656 39.660156 30.972656 40.066406 31.140625 C 40.472656 31.3125 40.859375 31.515625 41.226562 31.761719 C 41.59375 32.007812 41.933594 32.285156 42.246094 32.597656 C 42.554688 32.90625 42.832031 33.246094 43.078125 33.613281 C 43.324219 33.980469 43.53125 34.367188 43.699219 34.773438 C 43.867188 35.179688 43.996094 35.597656 44.082031 36.03125 C 44.167969 36.464844 44.210938 36.898438 44.210938 37.339844 Z M 44.210938 37.339844 " fill-opacity="1" fill-rule="nonzero"/><path fill="#41b5d4" d="M 14.105469 49.222656 C 14.765625 49.441406 15.425781 49.664062 16.101562 49.851562 C 15.882812 50.730469 15.691406 51.597656 15.511719 52.492188 C 13.976562 60.621094 15.175781 67.066406 19.011719 69.277344 C 22.96875 71.5625 29.617188 69.21875 36.09375 63.550781 C 36.605469 63.097656 37.117188 62.628906 37.632812 62.128906 C 38.273438 62.757812 38.949219 63.359375 39.621094 63.945312 C 45.890625 69.335938 52.085938 71.515625 55.914062 69.304688 C 59.867188 67.023438 61.15625 60.09375 59.488281 51.65625 C 59.355469 51.011719 59.210938 50.351562 59.046875 49.679688 C 59.515625 49.546875 59.96875 49.398438 60.425781 49.253906 C 68.878906 46.457031 75 41.929688 75 37.285156 C 75 32.847656 69.226562 28.539062 61.257812 25.800781 L 61.257812 25.796875 C 60.46875 25.535156 59.679688 25.285156 58.886719 25.050781 C 59.019531 24.507812 59.136719 23.964844 59.253906 23.425781 C 61.054688 14.695312 59.867188 7.679688 55.867188 5.367188 C 52.015625 3.152344 45.730469 5.453125 39.375 10.992188 C 38.742188 11.53125 38.132812 12.101562 37.542969 12.675781 C 37.148438 12.292969 36.738281 11.914062 36.328125 11.546875 C 29.664062 5.628906 22.984375 3.136719 18.984375 5.46875 C 15.148438 7.695312 14.003906 14.304688 15.617188 22.558594 C 15.777344 23.382812 15.953125 24.183594 16.15625 25.007812 C 15.21875 25.269531 14.296875 25.5625 13.429688 25.871094 C 5.609375 28.582031 0 32.859375 0 37.285156 C 0 41.855469 5.976562 46.4375 14.105469 49.222656 Z M 34.027344 61.15625 C 31.613281 63.367188 28.8125 65.125 25.765625 66.328125 C 24.140625 67.101562 22.265625 67.179688 20.59375 66.519531 C 18.265625 65.171875 17.296875 60 18.617188 53.039062 C 18.777344 52.222656 18.953125 51.398438 19.15625 50.59375 C 22.4375 51.296875 25.746094 51.78125 29.101562 52.027344 C 31.039062 54.769531 33.160156 57.390625 35.429688 59.851562 C 34.960938 60.304688 34.492188 60.742188 34.023438 61.152344 Z M 52.632812 33.648438 C 51.945312 32.359375 51.242188 31.070312 50.507812 29.8125 C 49.789062 28.570312 49.039062 27.335938 48.265625 26.121094 C 50.625 26.414062 52.882812 26.808594 54.992188 27.292969 C 54.316406 29.460938 53.523438 31.570312 52.632812 33.648438 Z M 52.660156 40.945312 C 53.597656 43.070312 54.417969 45.222656 55.132812 47.433594 C 52.863281 47.945312 50.566406 48.34375 48.25 48.605469 C 49.039062 47.375 49.789062 46.117188 50.523438 44.855469 C 51.269531 43.566406 51.972656 42.261719 52.660156 40.945312 Z M 50.964844 37.300781 C 49.984375 39.320312 48.929688 41.3125 47.804688 43.273438 C 46.691406 45.222656 45.503906 47.113281 44.257812 48.988281 C 42.078125 49.148438 39.804688 49.222656 37.507812 49.222656 C 35.207031 49.222656 32.980469 49.148438 30.828125 49.015625 C 29.554688 47.15625 28.351562 45.25 27.226562 43.304688 C 26.097656 41.355469 25.054688 39.378906 24.074219 37.355469 L 24.070312 37.355469 C 25.035156 35.335938 26.089844 33.355469 27.203125 31.410156 C 28.316406 29.460938 29.519531 27.570312 30.777344 25.710938 C 32.976562 25.550781 35.214844 25.460938 37.503906 25.460938 C 39.789062 25.460938 42.042969 25.550781 44.226562 25.710938 C 45.472656 27.558594 46.660156 29.445312 47.789062 31.382812 C 48.914062 33.316406 49.96875 35.292969 50.964844 37.300781 Z M 24.476562 29.839844 C 23.757812 31.085938 23.054688 32.355469 22.394531 33.648438 C 21.472656 31.464844 20.695312 29.328125 20.050781 27.261719 C 22.160156 26.792969 24.398438 26.414062 26.726562 26.117188 C 25.957031 27.335938 25.195312 28.578125 24.476562 29.839844 Z M 22.398438 41.058594 C 23.070312 42.351562 23.757812 43.625 24.492188 44.882812 C 25.238281 46.160156 26 47.433594 26.804688 48.679688 C 24.523438 48.429688 22.25 48.0625 20.007812 47.578125 C 20.652344 45.46875 21.460938 43.289062 22.398438 41.058594 Z M 37.617188 57.59375 C 36.125 55.984375 34.632812 54.199219 33.179688 52.277344 C 34.585938 52.335938 36.039062 52.367188 37.503906 52.367188 C 39.011719 52.367188 40.492188 52.335938 41.957031 52.261719 C 40.609375 54.121094 39.160156 55.898438 37.617188 57.59375 Z M 56.765625 61.992188 C 56.632812 63.777344 55.753906 65.445312 54.347656 66.574219 C 52.019531 67.921875 47.054688 66.164062 41.691406 61.566406 C 41.074219 61.039062 40.460938 60.464844 39.832031 59.882812 C 42.070312 57.40625 44.136719 54.785156 46.011719 52.03125 C 49.367188 51.753906 52.707031 51.242188 56.003906 50.492188 C 56.148438 51.09375 56.28125 51.695312 56.398438 52.28125 C 57.117188 55.445312 57.234375 58.742188 56.765625 61.992188 Z M 58.039062 28.070312 C 58.800781 28.289062 59.53125 28.523438 60.234375 28.757812 C 67.058594 31.101562 71.851562 34.585938 71.851562 37.253906 C 71.851562 40.125 66.738281 43.832031 59.429688 46.246094 C 59.019531 46.378906 58.609375 46.507812 58.183594 46.628906 C 57.160156 43.433594 55.898438 40.316406 54.449219 37.28125 C 55.855469 34.292969 57.042969 31.214844 58.039062 28.070312 Z M 41.4375 13.363281 C 46.890625 8.617188 51.972656 6.757812 54.289062 8.089844 C 56.761719 9.511719 57.714844 15.253906 56.164062 22.796875 C 56.058594 23.292969 55.957031 23.777344 55.824219 24.261719 C 52.570312 23.53125 49.277344 23.003906 45.964844 22.710938 C 44.0625 19.980469 41.980469 17.375 39.726562 14.929688 C 40.296875 14.386719 40.851562 13.875 41.4375 13.363281 Z M 37.53125 17.171875 C 39.070312 18.839844 40.519531 20.597656 41.867188 22.414062 C 38.964844 22.28125 36.050781 22.28125 33.148438 22.414062 C 34.585938 20.523438 36.066406 18.769531 37.53125 17.171875 Z M 20.539062 8.195312 C 23 6.757812 28.460938 8.808594 34.21875 13.90625 C 34.585938 14.226562 34.949219 14.582031 35.332031 14.929688 C 33.058594 17.375 30.964844 19.980469 29.046875 22.707031 C 25.738281 23 22.457031 23.511719 19.203125 24.230469 C 19.011719 23.484375 18.851562 22.722656 18.691406 21.960938 C 17.3125 14.867188 18.222656 9.523438 20.539062 8.195312 Z M 14.460938 28.84375 C 15.292969 28.550781 16.144531 28.289062 16.992188 28.039062 C 17.992188 31.214844 19.191406 34.335938 20.582031 37.351562 C 19.175781 40.414062 17.960938 43.578125 16.949219 46.800781 L 16.945312 46.804688 C 16.332031 46.628906 15.730469 46.4375 15.132812 46.230469 C 12.011719 45.25 8.464844 43.695312 5.902344 41.664062 C 4.425781 40.636719 3.429688 39.054688 3.148438 37.28125 C 3.148438 34.601562 7.777344 31.171875 14.460938 28.84375 Z M 14.460938 28.84375 " fill-opacity="1" fill-rule="nonzero"/></svg>